<svg xmlns="http://www.w3.org/2000/svg"  viewBox="0 0 50 50" width="50px" height="50px"><path d="M 14 4 C 8.4886661 4 4 8.4886661 4 14 L 4 36 C 4 41.511334 8.4886661 46 14 46 L 36 46 C 41.511334 46 46 41.511334 46 36 L 46 14 C 46 8.4886661 41.511334 4 36 4 L 14 4 z M 14 6 L 36 6 C 40.430666 6 44 9.5693339 44 14 L 44 36 C 44 40.430666 40.430666 44 36 44 L 14 44 C 9.5693339 44 6 40.430666 6 36 L 6 14 C 6 9.5693339 9.5693339 6 14 6 z M 13 12 C 10.802666 12 9 13.802666 9 16 L 9 19 L 9 34 C 9 36.197334 10.802666 38 13 38 L 37 38 C 39.197334 38 41 36.197334 41 34 L 41 18 C 41 15.802666 39.197334 14 37 14 L 21 14 C 20.333333 14 20.207031 13.792969 19.707031 13.292969 C 19.207031 12.792969 18.333333 12 17 12 L 13 12 z M 13 14 L 17 14 C 17.666667 14 17.792969 14.207031 18.292969 14.707031 C 18.792969 15.207031 19.666667 16 21 16 L 37 16 C 38.116666 16 39 16.883334 39 18 L 39 20 L 37.027344 20 L 36.972656 19.769531 A 1.0001 1.0001 0 0 0 36.894531 19.552734 C 36.294508 18.352677 35.041201 18 34 18 L 16 18 C 14.958799 18 13.705497 18.352677 13.105469 19.552734 A 1.0001 1.0001 0 0 0 13.027344 19.769531 L 12.972656 20 L 11 20 L 11 19 L 11 16 C 11 14.883334 11.883334 14 13 14 z M 11 22 L 39 22 L 39 34 C 39 35.116666 38.116666 36 37 36 L 13 36 C 11.883334 36 11 35.116666 11 34 L 11 22 z"/></svg>
